<?xml version="1.0" encoding="utf-8" standalone="no"?>
<!DOCTYPE svg PUBLIC "-//W3C//DTD SVG 1.1//EN"
  "http://www.w3.org/Graphics/SVG/1.1/DTD/svg11.dtd">
<svg xmlns:xlink="http://www.w3.org/1999/xlink" width="656.276875pt" height="344.336775pt" viewBox="0 0 656.276875 344.336775" xmlns="http://www.w3.org/2000/svg" version="1.1">
 <metadata>
  <rdf:RDF xmlns:dc="http://purl.org/dc/elements/1.1/" xmlns:cc="http://creativecommons.org/ns#" xmlns:rdf="http://www.w3.org/1999/02/22-rdf-syntax-ns#">
   <cc:Work>
    <dc:type rdf:resource="http://purl.org/dc/dcmitype/StillImage"/>
    <dc:format>image/svg+xml</dc:format>
    <dc:creator>
     <cc:Agent>
      <dc:title>Matplotlib v3.9.4, https://matplotlib.org/</dc:title>
     </cc:Agent>
    </dc:creator>
   </cc:Work>
  </rdf:RDF>
 </metadata>
 <defs>
  <style type="text/css">*{stroke-linejoin: round; stroke-linecap: butt}</style>
 </defs>
 <g id="figure_1">
  <g id="patch_1">
   <path d="M 0 344.336775 
L 656.276875 344.336775 
L 656.276875 0 
L 0 0 
z
" style="fill: #ffffff"/>
  </g>
  <g id="axes_1">
   <g id="patch_2">
    <path d="M 73.44 302.360775 
L 519.84 302.360775 
L 519.84 47.336775 
L 73.44 47.336775 
z
" style="fill: #ffffff"/>
   </g>
   <g id="matplotlib.axis_1">
    <g id="xtick_1">
     <g id="line2d_1">
      <defs>
       <path id="mb727d9ba3e" d="M 0 0 
L 0 3.5 
" style="stroke: #1a1a1a; stroke-width: 0.8"/>
      </defs>
      <g>
       <use xlink:href="#mb727d9ba3e" x="76.821818" y="302.360775" style="fill: #1a1a1a; stroke: #1a1a1a; stroke-width: 0.8"/>
      </g>
     </g>
     <g id="text_1">
      <!-- 2000 -->
      <g style="fill: #1a1a1a" transform="translate(65.369318 316.199369) scale(0.09 -0.09)">
       <defs>
        <path id="DejaVuSans-32" d="M 1228 531 
L 3431 531 
L 3431 0 
L 469 0 
L 469 531 
Q 828 903 1448 1529 
Q 2069 2156 2228 2338 
Q 2531 2678 2651 2914 
Q 2772 3150 2772 3378 
Q 2772 3750 2511 3984 
Q 2250 4219 1831 4219 
Q 1534 4219 1204 4116 
Q 875 4013 500 3803 
L 500 4441 
Q 881 4594 1212 4672 
Q 1544 4750 1819 4750 
Q 2544 4750 2975 4387 
Q 3406 4025 3406 3419 
Q 3406 3131 3298 2873 
Q 3191 2616 2906 2266 
Q 2828 2175 2409 1742 
Q 1991 1309 1228 531 
z
" transform="scale(0.015625)"/>
        <path id="DejaVuSans-30" d="M 2034 4250 
Q 1547 4250 1301 3770 
Q 1056 3291 1056 2328 
Q 1056 1369 1301 889 
Q 1547 409 2034 409 
Q 2525 409 2770 889 
Q 3016 1369 3016 2328 
Q 3016 3291 2770 3770 
Q 2525 4250 2034 4250 
z
M 2034 4750 
Q 2819 4750 3233 4129 
Q 3647 3509 3647 2328 
Q 3647 1150 3233 529 
Q 2819 -91 2034 -91 
Q 1250 -91 836 529 
Q 422 1150 422 2328 
Q 422 3509 836 4129 
Q 1250 4750 2034 4750 
z
" transform="scale(0.015625)"/>
       </defs>
       <use xlink:href="#DejaVuSans-32"/>
       <use xlink:href="#DejaVuSans-30" x="63.623047"/>
       <use xlink:href="#DejaVuSans-30" x="127.246094"/>
       <use xlink:href="#DejaVuSans-30" x="190.869141"/>
      </g>
     </g>
    </g>
    <g id="xtick_2">
     <g id="line2d_2">
      <g>
       <use xlink:href="#mb727d9ba3e" x="161.367273" y="302.360775" style="fill: #1a1a1a; stroke: #1a1a1a; stroke-width: 0.8"/>
      </g>
     </g>
     <g id="text_2">
      <!-- 2005 -->
      <g style="fill: #1a1a1a" transform="translate(149.914773 316.199369) scale(0.09 -0.09)">
       <defs>
        <path id="DejaVuSans-35" d="M 691 4666 
L 3169 4666 
L 3169 4134 
L 1269 4134 
L 1269 2991 
Q 1406 3038 1543 3061 
Q 1681 3084 1819 3084 
Q 2600 3084 3056 2656 
Q 3513 2228 3513 1497 
Q 3513 744 3044 326 
Q 2575 -91 1722 -91 
Q 1428 -91 1123 -41 
Q 819 9 494 109 
L 494 744 
Q 775 591 1075 516 
Q 1375 441 1709 441 
Q 2250 441 2565 725 
Q 2881 1009 2881 1497 
Q 2881 1984 2565 2268 
Q 2250 2553 1709 2553 
Q 1456 2553 1204 2497 
Q 953 2441 691 2322 
L 691 4666 
z
" transform="scale(0.015625)"/>
       </defs>
       <use xlink:href="#DejaVuSans-32"/>
       <use xlink:href="#DejaVuSans-30" x="63.623047"/>
       <use xlink:href="#DejaVuSans-30" x="127.246094"/>
       <use xlink:href="#DejaVuSans-35" x="190.869141"/>
      </g>
     </g>
    </g>
    <g id="xtick_3">
     <g id="line2d_3">
      <g>
       <use xlink:href="#mb727d9ba3e" x="245.912727" y="302.360775" style="fill: #1a1a1a; stroke: #1a1a1a; stroke-width: 0.8"/>
      </g>
     </g>
     <g id="text_3">
      <!-- 2010 -->
      <g style="fill: #1a1a1a" transform="translate(234.460227 316.199369) scale(0.09 -0.09)">
       <defs>
        <path id="DejaVuSans-31" d="M 794 531 
L 1825 531 
L 1825 4091 
L 703 3866 
L 703 4441 
L 1819 4666 
L 2450 4666 
L 2450 531 
L 3481 531 
L 3481 0 
L 794 0 
L 794 531 
z
" transform="scale(0.015625)"/>
       </defs>
       <use xlink:href="#DejaVuSans-32"/>
       <use xlink:href="#DejaVuSans-30" x="63.623047"/>
       <use xlink:href="#DejaVuSans-31" x="127.246094"/>
       <use xlink:href="#DejaVuSans-30" x="190.869141"/>
      </g>
     </g>
    </g>
    <g id="xtick_4">
     <g id="line2d_4">
      <g>
       <use xlink:href="#mb727d9ba3e" x="330.458182" y="302.360775" style="fill: #1a1a1a; stroke: #1a1a1a; stroke-width: 0.8"/>
      </g>
     </g>
     <g id="text_4">
      <!-- 2015 -->
      <g style="fill: #1a1a1a" transform="translate(319.005682 316.199369) scale(0.09 -0.09)">
       <use xlink:href="#DejaVuSans-32"/>
       <use xlink:href="#DejaVuSans-30" x="63.623047"/>
       <use xlink:href="#DejaVuSans-31" x="127.246094"/>
       <use xlink:href="#DejaVuSans-35" x="190.869141"/>
      </g>
     </g>
    </g>
    <g id="xtick_5">
     <g id="line2d_5">
      <g>
       <use xlink:href="#mb727d9ba3e" x="415.003636" y="302.360775" style="fill: #1a1a1a; stroke: #1a1a1a; stroke-width: 0.8"/>
      </g>
     </g>
     <g id="text_5">
      <!-- 2020 -->
      <g style="fill: #1a1a1a" transform="translate(403.551136 316.199369) scale(0.09 -0.09)">
       <use xlink:href="#DejaVuSans-32"/>
       <use xlink:href="#DejaVuSans-30" x="63.623047"/>
       <use xlink:href="#DejaVuSans-32" x="127.246094"/>
       <use xlink:href="#DejaVuSans-30" x="190.869141"/>
      </g>
     </g>
    </g>
    <g id="xtick_6">
     <g id="line2d_6">
      <g>
       <use xlink:href="#mb727d9ba3e" x="499.549091" y="302.360775" style="fill: #1a1a1a; stroke: #1a1a1a; stroke-width: 0.8"/>
      </g>
     </g>
     <g id="text_6">
      <!-- 2025 -->
      <g style="fill: #1a1a1a" transform="translate(488.096591 316.199369) scale(0.09 -0.09)">
       <use xlink:href="#DejaVuSans-32"/>
       <use xlink:href="#DejaVuSans-30" x="63.623047"/>
       <use xlink:href="#DejaVuSans-32" x="127.246094"/>
       <use xlink:href="#DejaVuSans-35" x="190.869141"/>
      </g>
     </g>
    </g>
   </g>
   <g id="matplotlib.axis_2">
    <g id="ytick_1">
     <g id="line2d_7">
      <path d="M 73.44 302.360775 
L 519.84 302.360775 
" clip-path="url(#pfea75ddab7)" style="fill: none; stroke: #e6e6e6; stroke-width: 0.8; stroke-linecap: square"/>
     </g>
     <g id="line2d_8">
      <defs>
       <path id="m3ec791d165" d="M 0 0 
L -3.5 0 
" style="stroke: #1a1a1a; stroke-width: 0.8"/>
      </defs>
      <g>
       <use xlink:href="#m3ec791d165" x="73.44" y="302.360775" style="fill: #1a1a1a; stroke: #1a1a1a; stroke-width: 0.8"/>
      </g>
     </g>
     <g id="text_7">
      <!-- 0 -->
      <g style="fill: #1a1a1a" transform="translate(60.71375 305.780072) scale(0.09 -0.09)">
       <use xlink:href="#DejaVuSans-30"/>
      </g>
     </g>
    </g>
    <g id="ytick_2">
     <g id="line2d_9">
      <path d="M 73.44 267.939355 
L 519.84 267.939355 
" clip-path="url(#pfea75ddab7)" style="fill: none; stroke: #e6e6e6; stroke-width: 0.8; stroke-linecap: square"/>
     </g>
     <g id="line2d_10">
      <g>
       <use xlink:href="#m3ec791d165" x="73.44" y="267.939355" style="fill: #1a1a1a; stroke: #1a1a1a; stroke-width: 0.8"/>
      </g>
     </g>
     <g id="text_8">
      <!-- 2 -->
      <g style="fill: #1a1a1a" transform="translate(60.71375 271.358652) scale(0.09 -0.09)">
       <use xlink:href="#DejaVuSans-32"/>
      </g>
     </g>
    </g>
    <g id="ytick_3">
     <g id="line2d_11">
      <path d="M 73.44 233.517934 
L 519.84 233.517934 
" clip-path="url(#pfea75ddab7)" style="fill: none; stroke: #e6e6e6; stroke-width: 0.8; stroke-linecap: square"/>
     </g>
     <g id="line2d_12">
      <g>
       <use xlink:href="#m3ec791d165" x="73.44" y="233.517934" style="fill: #1a1a1a; stroke: #1a1a1a; stroke-width: 0.8"/>
      </g>
     </g>
     <g id="text_9">
      <!-- 4 -->
      <g style="fill: #1a1a1a" transform="translate(60.71375 236.937231) scale(0.09 -0.09)">
       <defs>
        <path id="DejaVuSans-34" d="M 2419 4116 
L 825 1625 
L 2419 1625 
L 2419 4116 
z
M 2253 4666 
L 3047 4666 
L 3047 1625 
L 3713 1625 
L 3713 1100 
L 3047 1100 
L 3047 0 
L 2419 0 
L 2419 1100 
L 313 1100 
L 313 1709 
L 2253 4666 
z
" transform="scale(0.015625)"/>
       </defs>
       <use xlink:href="#DejaVuSans-34"/>
      </g>
     </g>
    </g>
    <g id="ytick_4">
     <g id="line2d_13">
      <path d="M 73.44 199.096514 
L 519.84 199.096514 
" clip-path="url(#pfea75ddab7)" style="fill: none; stroke: #e6e6e6; stroke-width: 0.8; stroke-linecap: square"/>
     </g>
     <g id="line2d_14">
      <g>
       <use xlink:href="#m3ec791d165" x="73.44" y="199.096514" style="fill: #1a1a1a; stroke: #1a1a1a; stroke-width: 0.8"/>
      </g>
     </g>
     <g id="text_10">
      <!-- 6 -->
      <g style="fill: #1a1a1a" transform="translate(60.71375 202.515811) scale(0.09 -0.09)">
       <defs>
        <path id="DejaVuSans-36" d="M 2113 2584 
Q 1688 2584 1439 2293 
Q 1191 2003 1191 1497 
Q 1191 994 1439 701 
Q 1688 409 2113 409 
Q 2538 409 2786 701 
Q 3034 994 3034 1497 
Q 3034 2003 2786 2293 
Q 2538 2584 2113 2584 
z
M 3366 4563 
L 3366 3988 
Q 3128 4100 2886 4159 
Q 2644 4219 2406 4219 
Q 1781 4219 1451 3797 
Q 1122 3375 1075 2522 
Q 1259 2794 1537 2939 
Q 1816 3084 2150 3084 
Q 2853 3084 3261 2657 
Q 3669 2231 3669 1497 
Q 3669 778 3244 343 
Q 2819 -91 2113 -91 
Q 1303 -91 875 529 
Q 447 1150 447 2328 
Q 447 3434 972 4092 
Q 1497 4750 2381 4750 
Q 2619 4750 2861 4703 
Q 3103 4656 3366 4563 
z
" transform="scale(0.015625)"/>
       </defs>
       <use xlink:href="#DejaVuSans-36"/>
      </g>
     </g>
    </g>
    <g id="ytick_5">
     <g id="line2d_15">
      <path d="M 73.44 164.675094 
L 519.84 164.675094 
" clip-path="url(#pfea75ddab7)" style="fill: none; stroke: #e6e6e6; stroke-width: 0.8; stroke-linecap: square"/>
     </g>
     <g id="line2d_16">
      <g>
       <use xlink:href="#m3ec791d165" x="73.44" y="164.675094" style="fill: #1a1a1a; stroke: #1a1a1a; stroke-width: 0.8"/>
      </g>
     </g>
     <g id="text_11">
      <!-- 8 -->
      <g style="fill: #1a1a1a" transform="translate(60.71375 168.094391) scale(0.09 -0.09)">
       <defs>
        <path id="DejaVuSans-38" d="M 2034 2216 
Q 1584 2216 1326 1975 
Q 1069 1734 1069 1313 
Q 1069 891 1326 650 
Q 1584 409 2034 409 
Q 2484 409 2743 651 
Q 3003 894 3003 1313 
Q 3003 1734 2745 1975 
Q 2488 2216 2034 2216 
z
M 1403 2484 
Q 997 2584 770 2862 
Q 544 3141 544 3541 
Q 544 4100 942 4425 
Q 1341 4750 2034 4750 
Q 2731 4750 3128 4425 
Q 3525 4100 3525 3541 
Q 3525 3141 3298 2862 
Q 3072 2584 2669 2484 
Q 3125 2378 3379 2068 
Q 3634 1759 3634 1313 
Q 3634 634 3220 271 
Q 2806 -91 2034 -91 
Q 1263 -91 848 271 
Q 434 634 434 1313 
Q 434 1759 690 2068 
Q 947 2378 1403 2484 
z
M 1172 3481 
Q 1172 3119 1398 2916 
Q 1625 2713 2034 2713 
Q 2441 2713 2670 2916 
Q 2900 3119 2900 3481 
Q 2900 3844 2670 4047 
Q 2441 4250 2034 4250 
Q 1625 4250 1398 4047 
Q 1172 3844 1172 3481 
z
" transform="scale(0.015625)"/>
       </defs>
       <use xlink:href="#DejaVuSans-38"/>
      </g>
     </g>
    </g>
    <g id="ytick_6">
     <g id="line2d_17">
      <path d="M 73.44 130.253674 
L 519.84 130.253674 
" clip-path="url(#pfea75ddab7)" style="fill: none; stroke: #e6e6e6; stroke-width: 0.8; stroke-linecap: square"/>
     </g>
     <g id="line2d_18">
      <g>
       <use xlink:href="#m3ec791d165" x="73.44" y="130.253674" style="fill: #1a1a1a; stroke: #1a1a1a; stroke-width: 0.8"/>
      </g>
     </g>
     <g id="text_12">
      <!-- 10 -->
      <g style="fill: #1a1a1a" transform="translate(54.9875 133.672971) scale(0.09 -0.09)">
       <use xlink:href="#DejaVuSans-31"/>
       <use xlink:href="#DejaVuSans-30" x="63.623047"/>
      </g>
     </g>
    </g>
    <g id="ytick_7">
     <g id="line2d_19">
      <path d="M 73.44 95.832253 
L 519.84 95.832253 
" clip-path="url(#pfea75ddab7)" style="fill: none; stroke: #e6e6e6; stroke-width: 0.8; stroke-linecap: square"/>
     </g>
     <g id="line2d_20">
      <g>
       <use xlink:href="#m3ec791d165" x="73.44" y="95.832253" style="fill: #1a1a1a; stroke: #1a1a1a; stroke-width: 0.8"/>
      </g>
     </g>
     <g id="text_13">
      <!-- 12 -->
      <g style="fill: #1a1a1a" transform="translate(54.9875 99.25155) scale(0.09 -0.09)">
       <use xlink:href="#DejaVuSans-31"/>
       <use xlink:href="#DejaVuSans-32" x="63.623047"/>
      </g>
     </g>
    </g>
    <g id="ytick_8">
     <g id="line2d_21">
      <path d="M 73.44 61.410833 
L 519.84 61.410833 
" clip-path="url(#pfea75ddab7)" style="fill: none; stroke: #e6e6e6; stroke-width: 0.8; stroke-linecap: square"/>
     </g>
     <g id="line2d_22">
      <g>
       <use xlink:href="#m3ec791d165" x="73.44" y="61.410833" style="fill: #1a1a1a; stroke: #1a1a1a; stroke-width: 0.8"/>
      </g>
     </g>
     <g id="text_14">
      <!-- 14 -->
      <g style="fill: #1a1a1a" transform="translate(54.9875 64.83013) scale(0.09 -0.09)">
       <use xlink:href="#DejaVuSans-31"/>
       <use xlink:href="#DejaVuSans-34" x="63.623047"/>
      </g>
     </g>
    </g>
    <g id="text_15">
     <!-- % of 10-K filers -->
     <g style="fill: #1a1a1a" transform="translate(48.907812 212.906588) rotate(-90) scale(0.1 -0.1)">
      <defs>
       <path id="DejaVuSans-25" d="M 4653 2053 
Q 4381 2053 4226 1822 
Q 4072 1591 4072 1178 
Q 4072 772 4226 539 
Q 4381 306 4653 306 
Q 4919 306 5073 539 
Q 5228 772 5228 1178 
Q 5228 1588 5073 1820 
Q 4919 2053 4653 2053 
z
M 4653 2450 
Q 5147 2450 5437 2106 
Q 5728 1763 5728 1178 
Q 5728 594 5436 251 
Q 5144 -91 4653 -91 
Q 4153 -91 3862 251 
Q 3572 594 3572 1178 
Q 3572 1766 3864 2108 
Q 4156 2450 4653 2450 
z
M 1428 4353 
Q 1159 4353 1004 4120 
Q 850 3888 850 3481 
Q 850 3069 1003 2837 
Q 1156 2606 1428 2606 
Q 1700 2606 1854 2837 
Q 2009 3069 2009 3481 
Q 2009 3884 1853 4118 
Q 1697 4353 1428 4353 
z
M 4250 4750 
L 4750 4750 
L 1831 -91 
L 1331 -91 
L 4250 4750 
z
M 1428 4750 
Q 1922 4750 2215 4408 
Q 2509 4066 2509 3481 
Q 2509 2891 2217 2550 
Q 1925 2209 1428 2209 
Q 931 2209 642 2551 
Q 353 2894 353 3481 
Q 353 4063 643 4406 
Q 934 4750 1428 4750 
z
" transform="scale(0.015625)"/>
       <path id="DejaVuSans-20" transform="scale(0.015625)"/>
       <path id="DejaVuSans-6f" d="M 1959 3097 
Q 1497 3097 1228 2736 
Q 959 2375 959 1747 
Q 959 1119 1226 758 
Q 1494 397 1959 397 
Q 2419 397 2687 759 
Q 2956 1122 2956 1747 
Q 2956 2369 2687 2733 
Q 2419 3097 1959 3097 
z
M 1959 3584 
Q 2709 3584 3137 3096 
Q 3566 2609 3566 1747 
Q 3566 888 3137 398 
Q 2709 -91 1959 -91 
Q 1206 -91 779 398 
Q 353 888 353 1747 
Q 353 2609 779 3096 
Q 1206 3584 1959 3584 
z
" transform="scale(0.015625)"/>
       <path id="DejaVuSans-66" d="M 2375 4863 
L 2375 4384 
L 1825 4384 
Q 1516 4384 1395 4259 
Q 1275 4134 1275 3809 
L 1275 3500 
L 2222 3500 
L 2222 3053 
L 1275 3053 
L 1275 0 
L 697 0 
L 697 3053 
L 147 3053 
L 147 3500 
L 697 3500 
L 697 3744 
Q 697 4328 969 4595 
Q 1241 4863 1831 4863 
L 2375 4863 
z
" transform="scale(0.015625)"/>
       <path id="DejaVuSans-2d" d="M 313 2009 
L 1997 2009 
L 1997 1497 
L 313 1497 
L 313 2009 
z
" transform="scale(0.015625)"/>
       <path id="DejaVuSans-4b" d="M 628 4666 
L 1259 4666 
L 1259 2694 
L 3353 4666 
L 4166 4666 
L 1850 2491 
L 4331 0 
L 3500 0 
L 1259 2247 
L 1259 0 
L 628 0 
L 628 4666 
z
" transform="scale(0.015625)"/>
       <path id="DejaVuSans-69" d="M 603 3500 
L 1178 3500 
L 1178 0 
L 603 0 
L 603 3500 
z
M 603 4863 
L 1178 4863 
L 1178 4134 
L 603 4134 
L 603 4863 
z
" transform="scale(0.015625)"/>
       <path id="DejaVuSans-6c" d="M 603 4863 
L 1178 4863 
L 1178 0 
L 603 0 
L 603 4863 
z
" transform="scale(0.015625)"/>
       <path id="DejaVuSans-65" d="M 3597 1894 
L 3597 1613 
L 953 1613 
Q 991 1019 1311 708 
Q 1631 397 2203 397 
Q 2534 397 2845 478 
Q 3156 559 3463 722 
L 3463 178 
Q 3153 47 2828 -22 
Q 2503 -91 2169 -91 
Q 1331 -91 842 396 
Q 353 884 353 1716 
Q 353 2575 817 3079 
Q 1281 3584 2069 3584 
Q 2775 3584 3186 3129 
Q 3597 2675 3597 1894 
z
M 3022 2063 
Q 3016 2534 2758 2815 
Q 2500 3097 2075 3097 
Q 1594 3097 1305 2825 
Q 1016 2553 972 2059 
L 3022 2063 
z
" transform="scale(0.015625)"/>
       <path id="DejaVuSans-72" d="M 2631 2963 
Q 2534 3019 2420 3045 
Q 2306 3072 2169 3072 
Q 1681 3072 1420 2755 
Q 1159 2438 1159 1844 
L 1159 0 
L 581 0 
L 581 3500 
L 1159 3500 
L 1159 2956 
Q 1341 3275 1631 3429 
Q 1922 3584 2338 3584 
Q 2397 3584 2469 3576 
Q 2541 3569 2628 3553 
L 2631 2963 
z
" transform="scale(0.015625)"/>
       <path id="DejaVuSans-73" d="M 2834 3397 
L 2834 2853 
Q 2591 2978 2328 3040 
Q 2066 3103 1784 3103 
Q 1356 3103 1142 2972 
Q 928 2841 928 2578 
Q 928 2378 1081 2264 
Q 1234 2150 1697 2047 
L 1894 2003 
Q 2506 1872 2764 1633 
Q 3022 1394 3022 966 
Q 3022 478 2636 193 
Q 2250 -91 1575 -91 
Q 1294 -91 989 -36 
Q 684 19 347 128 
L 347 722 
Q 666 556 975 473 
Q 1284 391 1588 391 
Q 1994 391 2212 530 
Q 2431 669 2431 922 
Q 2431 1156 2273 1281 
Q 2116 1406 1581 1522 
L 1381 1569 
Q 847 1681 609 1914 
Q 372 2147 372 2553 
Q 372 3047 722 3315 
Q 1072 3584 1716 3584 
Q 2034 3584 2315 3537 
Q 2597 3491 2834 3397 
z
" transform="scale(0.015625)"/>
      </defs>
      <use xlink:href="#DejaVuSans-25"/>
      <use xlink:href="#DejaVuSans-20" x="95.019531"/>
      <use xlink:href="#DejaVuSans-6f" x="126.806641"/>
      <use xlink:href="#DejaVuSans-66" x="187.988281"/>
      <use xlink:href="#DejaVuSans-20" x="223.193359"/>
      <use xlink:href="#DejaVuSans-31" x="254.980469"/>
      <use xlink:href="#DejaVuSans-30" x="318.603516"/>
      <use xlink:href="#DejaVuSans-2d" x="382.226562"/>
      <use xlink:href="#DejaVuSans-4b" x="418.310547"/>
      <use xlink:href="#DejaVuSans-20" x="483.886719"/>
      <use xlink:href="#DejaVuSans-66" x="515.673828"/>
      <use xlink:href="#DejaVuSans-69" x="550.878906"/>
      <use xlink:href="#DejaVuSans-6c" x="578.662109"/>
      <use xlink:href="#DejaVuSans-65" x="606.445312"/>
      <use xlink:href="#DejaVuSans-72" x="667.96875"/>
      <use xlink:href="#DejaVuSans-73" x="709.082031"/>
     </g>
    </g>
   </g>
   <g id="line2d_23">
    <path d="M 93.730909 302.360775 
L 110.64 302.360775 
L 127.549091 302.360775 
L 144.458182 302.360775 
L 161.367273 302.360775 
L 178.276364 302.360775 
L 195.185455 302.360775 
L 212.094545 302.360775 
L 229.003636 302.360775 
L 245.912727 302.360775 
L 262.821818 302.360775 
L 279.730909 302.360775 
L 296.64 302.360775 
L 313.549091 302.137036 
L 330.458182 302.137036 
L 347.367273 301.431397 
L 364.276364 301.138815 
L 381.185455 297.369669 
L 398.094545 290.175592 
L 415.003636 281.811187 
L 431.912727 271.312654 
L 448.821818 250.831909 
L 465.730909 238.199248 
L 482.64 187.169492 
L 499.549091 80.600775 
" clip-path="url(#pfea75ddab7)" style="fill: none; stroke: #c1440e; stroke-width: 2.8; stroke-linecap: square"/>
   </g>
   <g id="line2d_24">
    <path d="M 93.730909 302.360775 
L 110.64 302.360775 
L 127.549091 302.360775 
L 144.458182 302.360775 
L 161.367273 302.360775 
L 178.276364 302.360775 
L 195.185455 302.360775 
L 212.094545 302.360775 
L 229.003636 302.360775 
L 245.912727 302.360775 
L 262.821818 302.360775 
L 279.730909 302.360775 
L 296.64 302.360775 
L 313.549091 302.360775 
L 330.458182 302.360775 
L 347.367273 302.360775 
L 364.276364 302.360775 
L 381.185455 300.364333 
L 398.094545 299.81359 
L 415.003636 299.503797 
L 431.912727 299.400533 
L 448.821818 300.329911 
L 465.730909 299.985697 
L 482.64 300.329911 
L 499.549091 299.211215 
" clip-path="url(#pfea75ddab7)" style="fill: none; stroke: #6a8caf; stroke-width: 1.6; stroke-linecap: square"/>
   </g>
   <g id="line2d_25">
    <path d="M 93.730909 302.360775 
L 110.64 302.360775 
L 127.549091 302.360775 
L 144.458182 302.360775 
L 161.367273 302.360775 
L 178.276364 302.360775 
L 195.185455 302.360775 
L 212.094545 302.360775 
L 229.003636 302.360775 
L 245.912727 301.982139 
L 262.821818 302.154246 
L 279.730909 301.741189 
L 296.64 301.706768 
L 313.549091 302.360775 
L 330.458182 301.25929 
L 347.367273 300.725758 
L 364.276364 300.897865 
L 381.185455 301.362554 
L 398.094545 300.829022 
L 415.003636 300.278279 
L 431.912727 300.140593 
L 448.821818 299.882433 
L 465.730909 299.985697 
L 482.64 300.071751 
L 499.549091 300.7946 
" clip-path="url(#pfea75ddab7)" style="fill: none; stroke: #8a8a8a; stroke-width: 1.6; stroke-linecap: square"/>
   </g>
   <g id="line2d_26">
    <path d="M 93.730909 302.360775 
L 110.64 302.360775 
L 127.549091 302.360775 
L 144.458182 302.360775 
L 161.367273 302.360775 
L 178.276364 302.360775 
L 195.185455 302.360775 
L 212.094545 302.360775 
L 229.003636 302.360775 
L 245.912727 302.360775 
L 262.821818 302.360775 
L 279.730909 302.360775 
L 296.64 302.360775 
L 313.549091 302.360775 
L 330.458182 302.360775 
L 347.367273 302.360775 
L 364.276364 302.360775 
L 381.185455 302.360775 
L 398.094545 302.360775 
L 415.003636 302.360775 
L 431.912727 302.360775 
L 448.821818 302.360775 
L 465.730909 302.119825 
L 482.64 302.102614 
L 499.549091 301.844454 
" clip-path="url(#pfea75ddab7)" style="fill: none; stroke: #b0a58f; stroke-width: 1.6; stroke-linecap: square"/>
   </g>
   <g id="patch_3">
    <path d="M 73.44 302.360775 
L 73.44 47.336775 
" style="fill: none; stroke: #000000; stroke-width: 0.8; stroke-linejoin: miter; stroke-linecap: square"/>
   </g>
   <g id="patch_4">
    <path d="M 73.44 302.360775 
L 519.84 302.360775 
" style="fill: none; stroke: #000000; stroke-width: 0.8; stroke-linejoin: miter; stroke-linecap: square"/>
   </g>
   <g id="text_16">
    <!-- 12.9% -->
    <g style="fill: #c1440e" transform="translate(457.549091 82.600775) scale(0.1 -0.1)">
     <defs>
      <path id="DejaVuSans-Bold-31" d="M 750 831 
L 1813 831 
L 1813 3847 
L 722 3622 
L 722 4441 
L 1806 4666 
L 2950 4666 
L 2950 831 
L 4013 831 
L 4013 0 
L 750 0 
L 750 831 
z
" transform="scale(0.015625)"/>
      <path id="DejaVuSans-Bold-32" d="M 1844 884 
L 3897 884 
L 3897 0 
L 506 0 
L 506 884 
L 2209 2388 
Q 2438 2594 2547 2791 
Q 2656 2988 2656 3200 
Q 2656 3528 2436 3728 
Q 2216 3928 1850 3928 
Q 1569 3928 1234 3808 
Q 900 3688 519 3450 
L 519 4475 
Q 925 4609 1322 4679 
Q 1719 4750 2100 4750 
Q 2938 4750 3402 4381 
Q 3866 4013 3866 3353 
Q 3866 2972 3669 2642 
Q 3472 2313 2841 1759 
L 1844 884 
z
" transform="scale(0.015625)"/>
      <path id="DejaVuSans-Bold-2e" d="M 653 1209 
L 1778 1209 
L 1778 0 
L 653 0 
L 653 1209 
z
" transform="scale(0.015625)"/>
      <path id="DejaVuSans-Bold-39" d="M 641 103 
L 641 966 
Q 928 831 1190 764 
Q 1453 697 1709 697 
Q 2247 697 2547 995 
Q 2847 1294 2900 1881 
Q 2688 1725 2447 1647 
Q 2206 1569 1925 1569 
Q 1209 1569 770 1986 
Q 331 2403 331 3084 
Q 331 3838 820 4291 
Q 1309 4744 2131 4744 
Q 3044 4744 3544 4128 
Q 4044 3513 4044 2388 
Q 4044 1231 3459 570 
Q 2875 -91 1856 -91 
Q 1528 -91 1228 -42 
Q 928 6 641 103 
z
M 2125 2350 
Q 2441 2350 2600 2554 
Q 2759 2759 2759 3169 
Q 2759 3575 2600 3781 
Q 2441 3988 2125 3988 
Q 1809 3988 1650 3781 
Q 1491 3575 1491 3169 
Q 1491 2759 1650 2554 
Q 1809 2350 2125 2350 
z
" transform="scale(0.015625)"/>
      <path id="DejaVuSans-Bold-25" d="M 4959 1925 
Q 4738 1925 4616 1733 
Q 4494 1541 4494 1184 
Q 4494 825 4614 633 
Q 4734 441 4959 441 
Q 5184 441 5303 633 
Q 5422 825 5422 1184 
Q 5422 1541 5301 1733 
Q 5181 1925 4959 1925 
z
M 4959 2450 
Q 5541 2450 5875 2112 
Q 6209 1775 6209 1184 
Q 6209 594 5875 251 
Q 5541 -91 4959 -91 
Q 4378 -91 4042 251 
Q 3706 594 3706 1184 
Q 3706 1772 4042 2111 
Q 4378 2450 4959 2450 
z
M 2094 -91 
L 1403 -91 
L 4319 4750 
L 5013 4750 
L 2094 -91 
z
M 1453 4750 
Q 2034 4750 2367 4411 
Q 2700 4072 2700 3481 
Q 2700 2891 2367 2550 
Q 2034 2209 1453 2209 
Q 872 2209 539 2550 
Q 206 2891 206 3481 
Q 206 4072 539 4411 
Q 872 4750 1453 4750 
z
M 1453 4225 
Q 1228 4225 1106 4031 
Q 984 3838 984 3481 
Q 984 3122 1106 2926 
Q 1228 2731 1453 2731 
Q 1678 2731 1798 2926 
Q 1919 3122 1919 3481 
Q 1919 3838 1797 4031 
Q 1675 4225 1453 4225 
z
" transform="scale(0.015625)"/>
     </defs>
     <use xlink:href="#DejaVuSans-Bold-31"/>
     <use xlink:href="#DejaVuSans-Bold-32" x="69.580078"/>
     <use xlink:href="#DejaVuSans-Bold-2e" x="139.160156"/>
     <use xlink:href="#DejaVuSans-Bold-39" x="177.148438"/>
     <use xlink:href="#DejaVuSans-Bold-25" x="246.728516"/>
    </g>
   </g>
   <g id="text_17">
    <!-- blockchain, cloud, quantum: -->
    <g style="fill: #1a1a1a" transform="translate(82.368 139.268344) scale(0.09 -0.09)">
     <defs>
      <path id="DejaVuSans-62" d="M 3116 1747 
Q 3116 2381 2855 2742 
Q 2594 3103 2138 3103 
Q 1681 3103 1420 2742 
Q 1159 2381 1159 1747 
Q 1159 1113 1420 752 
Q 1681 391 2138 391 
Q 2594 391 2855 752 
Q 3116 1113 3116 1747 
z
M 1159 2969 
Q 1341 3281 1617 3432 
Q 1894 3584 2278 3584 
Q 2916 3584 3314 3078 
Q 3713 2572 3713 1747 
Q 3713 922 3314 415 
Q 2916 -91 2278 -91 
Q 1894 -91 1617 61 
Q 1341 213 1159 525 
L 1159 0 
L 581 0 
L 581 4863 
L 1159 4863 
L 1159 2969 
z
" transform="scale(0.015625)"/>
      <path id="DejaVuSans-63" d="M 3122 3366 
L 3122 2828 
Q 2878 2963 2633 3030 
Q 2388 3097 2138 3097 
Q 1578 3097 1268 2742 
Q 959 2388 959 1747 
Q 959 1106 1268 751 
Q 1578 397 2138 397 
Q 2388 397 2633 464 
Q 2878 531 3122 666 
L 3122 134 
Q 2881 22 2623 -34 
Q 2366 -91 2075 -91 
Q 1284 -91 818 406 
Q 353 903 353 1747 
Q 353 2603 823 3093 
Q 1294 3584 2113 3584 
Q 2378 3584 2631 3529 
Q 2884 3475 3122 3366 
z
" transform="scale(0.015625)"/>
      <path id="DejaVuSans-6b" d="M 581 4863 
L 1159 4863 
L 1159 1991 
L 2875 3500 
L 3609 3500 
L 1753 1863 
L 3688 0 
L 2938 0 
L 1159 1709 
L 1159 0 
L 581 0 
L 581 4863 
z
" transform="scale(0.015625)"/>
      <path id="DejaVuSans-68" d="M 3513 2113 
L 3513 0 
L 2938 0 
L 2938 2094 
Q 2938 2591 2744 2837 
Q 2550 3084 2163 3084 
Q 1697 3084 1428 2787 
Q 1159 2491 1159 1978 
L 1159 0 
L 581 0 
L 581 4863 
L 1159 4863 
L 1159 2956 
Q 1366 3272 1645 3428 
Q 1925 3584 2291 3584 
Q 2894 3584 3203 3211 
Q 3513 2838 3513 2113 
z
" transform="scale(0.015625)"/>
      <path id="DejaVuSans-61" d="M 2194 1759 
Q 1497 1759 1228 1600 
Q 959 1441 959 1056 
Q 959 750 1161 570 
Q 1363 391 1709 391 
Q 2188 391 2477 730 
Q 2766 1069 2766 1631 
L 2766 1759 
L 2194 1759 
z
M 3341 1997 
L 3341 0 
L 2766 0 
L 2766 531 
Q 2569 213 2275 61 
Q 1981 -91 1556 -91 
Q 1019 -91 701 211 
Q 384 513 384 1019 
Q 384 1609 779 1909 
Q 1175 2209 1959 2209 
L 2766 2209 
L 2766 2266 
Q 2766 2663 2505 2880 
Q 2244 3097 1772 3097 
Q 1472 3097 1187 3025 
Q 903 2953 641 2809 
L 641 3341 
Q 956 3463 1253 3523 
Q 1550 3584 1831 3584 
Q 2591 3584 2966 3190 
Q 3341 2797 3341 1997 
z
" transform="scale(0.015625)"/>
      <path id="DejaVuSans-6e" d="M 3513 2113 
L 3513 0 
L 2938 0 
L 2938 2094 
Q 2938 2591 2744 2837 
Q 2550 3084 2163 3084 
Q 1697 3084 1428 2787 
Q 1159 2491 1159 1978 
L 1159 0 
L 581 0 
L 581 3500 
L 1159 3500 
L 1159 2956 
Q 1366 3272 1645 3428 
Q 1925 3584 2291 3584 
Q 2894 3584 3203 3211 
Q 3513 2838 3513 2113 
z
" transform="scale(0.015625)"/>
      <path id="DejaVuSans-2c" d="M 750 794 
L 1409 794 
L 1409 256 
L 897 -744 
L 494 -744 
L 750 256 
L 750 794 
z
" transform="scale(0.015625)"/>
      <path id="DejaVuSans-75" d="M 544 1381 
L 544 3500 
L 1119 3500 
L 1119 1403 
Q 1119 906 1312 657 
Q 1506 409 1894 409 
Q 2359 409 2629 706 
Q 2900 1003 2900 1516 
L 2900 3500 
L 3475 3500 
L 3475 0 
L 2900 0 
L 2900 538 
Q 2691 219 2414 64 
Q 2138 -91 1772 -91 
Q 1169 -91 856 284 
Q 544 659 544 1381 
z
M 1991 3584 
L 1991 3584 
z
" transform="scale(0.015625)"/>
      <path id="DejaVuSans-64" d="M 2906 2969 
L 2906 4863 
L 3481 4863 
L 3481 0 
L 2906 0 
L 2906 525 
Q 2725 213 2448 61 
Q 2172 -91 1784 -91 
Q 1150 -91 751 415 
Q 353 922 353 1747 
Q 353 2572 751 3078 
Q 1150 3584 1784 3584 
Q 2172 3584 2448 3432 
Q 2725 3281 2906 2969 
z
M 947 1747 
Q 947 1113 1208 752 
Q 1469 391 1925 391 
Q 2381 391 2643 752 
Q 2906 1113 2906 1747 
Q 2906 2381 2643 2742 
Q 2381 3103 1925 3103 
Q 1469 3103 1208 2742 
Q 947 2381 947 1747 
z
" transform="scale(0.015625)"/>
      <path id="DejaVuSans-71" d="M 947 1747 
Q 947 1113 1208 752 
Q 1469 391 1925 391 
Q 2381 391 2643 752 
Q 2906 1113 2906 1747 
Q 2906 2381 2643 2742 
Q 2381 3103 1925 3103 
Q 1469 3103 1208 2742 
Q 947 2381 947 1747 
z
M 2906 525 
Q 2725 213 2448 61 
Q 2172 -91 1784 -91 
Q 1150 -91 751 415 
Q 353 922 353 1747 
Q 353 2572 751 3078 
Q 1150 3584 1784 3584 
Q 2172 3584 2448 3432 
Q 2725 3281 2906 2969 
L 2906 3500 
L 3481 3500 
L 3481 -1331 
L 2906 -1331 
L 2906 525 
z
" transform="scale(0.015625)"/>
      <path id="DejaVuSans-74" d="M 1172 4494 
L 1172 3500 
L 2356 3500 
L 2356 3053 
L 1172 3053 
L 1172 1153 
Q 1172 725 1289 603 
Q 1406 481 1766 481 
L 2356 481 
L 2356 0 
L 1766 0 
Q 1100 0 847 248 
Q 594 497 594 1153 
L 594 3053 
L 172 3053 
L 172 3500 
L 594 3500 
L 594 4494 
L 1172 4494 
z
" transform="scale(0.015625)"/>
      <path id="DejaVuSans-6d" d="M 3328 2828 
Q 3544 3216 3844 3400 
Q 4144 3584 4550 3584 
Q 5097 3584 5394 3201 
Q 5691 2819 5691 2113 
L 5691 0 
L 5113 0 
L 5113 2094 
Q 5113 2597 4934 2840 
Q 4756 3084 4391 3084 
Q 3944 3084 3684 2787 
Q 3425 2491 3425 1978 
L 3425 0 
L 2847 0 
L 2847 2094 
Q 2847 2600 2669 2842 
Q 2491 3084 2119 3084 
Q 1678 3084 1418 2786 
Q 1159 2488 1159 1978 
L 1159 0 
L 581 0 
L 581 3500 
L 1159 3500 
L 1159 2956 
Q 1356 3278 1631 3431 
Q 1906 3584 2284 3584 
Q 2666 3584 2933 3390 
Q 3200 3197 3328 2828 
z
" transform="scale(0.015625)"/>
      <path id="DejaVuSans-3a" d="M 750 794 
L 1409 794 
L 1409 0 
L 750 0 
L 750 794 
z
M 750 3309 
L 1409 3309 
L 1409 2516 
L 750 2516 
L 750 3309 
z
" transform="scale(0.015625)"/>
     </defs>
     <use xlink:href="#DejaVuSans-62"/>
     <use xlink:href="#DejaVuSans-6c" x="63.476562"/>
     <use xlink:href="#DejaVuSans-6f" x="91.259766"/>
     <use xlink:href="#DejaVuSans-63" x="152.441406"/>
     <use xlink:href="#DejaVuSans-6b" x="207.421875"/>
     <use xlink:href="#DejaVuSans-63" x="265.332031"/>
     <use xlink:href="#DejaVuSans-68" x="320.3125"/>
     <use xlink:href="#DejaVuSans-61" x="383.691406"/>
     <use xlink:href="#DejaVuSans-69" x="444.970703"/>
     <use xlink:href="#DejaVuSans-6e" x="472.753906"/>
     <use xlink:href="#DejaVuSans-2c" x="536.132812"/>
     <use xlink:href="#DejaVuSans-20" x="567.919922"/>
     <use xlink:href="#DejaVuSans-63" x="599.707031"/>
     <use xlink:href="#DejaVuSans-6c" x="654.6875"/>
     <use xlink:href="#DejaVuSans-6f" x="682.470703"/>
     <use xlink:href="#DejaVuSans-75" x="743.652344"/>
     <use xlink:href="#DejaVuSans-64" x="807.03125"/>
     <use xlink:href="#DejaVuSans-2c" x="870.507812"/>
     <use xlink:href="#DejaVuSans-20" x="902.294922"/>
     <use xlink:href="#DejaVuSans-71" x="934.082031"/>
     <use xlink:href="#DejaVuSans-75" x="997.558594"/>
     <use xlink:href="#DejaVuSans-61" x="1060.9375"/>
     <use xlink:href="#DejaVuSans-6e" x="1122.216797"/>
     <use xlink:href="#DejaVuSans-74" x="1185.595703"/>
     <use xlink:href="#DejaVuSans-75" x="1224.804688"/>
     <use xlink:href="#DejaVuSans-6d" x="1288.183594"/>
     <use xlink:href="#DejaVuSans-3a" x="1385.595703"/>
    </g>
    <!-- all below 0.2% in 2025 -->
    <g style="fill: #1a1a1a" transform="translate(82.368 149.346375) scale(0.09 -0.09)">
     <defs>
      <path id="DejaVuSans-77" d="M 269 3500 
L 844 3500 
L 1563 769 
L 2278 3500 
L 2956 3500 
L 3675 769 
L 4391 3500 
L 4966 3500 
L 4050 0 
L 3372 0 
L 2619 2869 
L 1863 0 
L 1184 0 
L 269 3500 
z
" transform="scale(0.015625)"/>
      <path id="DejaVuSans-2e" d="M 684 794 
L 1344 794 
L 1344 0 
L 684 0 
L 684 794 
z
" transform="scale(0.015625)"/>
     </defs>
     <use xlink:href="#DejaVuSans-61"/>
     <use xlink:href="#DejaVuSans-6c" x="61.279297"/>
     <use xlink:href="#DejaVuSans-6c" x="89.0625"/>
     <use xlink:href="#DejaVuSans-20" x="116.845703"/>
     <use xlink:href="#DejaVuSans-62" x="148.632812"/>
     <use xlink:href="#DejaVuSans-65" x="212.109375"/>
     <use xlink:href="#DejaVuSans-6c" x="273.632812"/>
     <use xlink:href="#DejaVuSans-6f" x="301.416016"/>
     <use xlink:href="#DejaVuSans-77" x="362.597656"/>
     <use xlink:href="#DejaVuSans-20" x="444.384766"/>
     <use xlink:href="#DejaVuSans-30" x="476.171875"/>
     <use xlink:href="#DejaVuSans-2e" x="539.794922"/>
     <use xlink:href="#DejaVuSans-32" x="571.582031"/>
     <use xlink:href="#DejaVuSans-25" x="635.205078"/>
     <use xlink:href="#DejaVuSans-20" x="730.224609"/>
     <use xlink:href="#DejaVuSans-69" x="762.011719"/>
     <use xlink:href="#DejaVuSans-6e" x="789.794922"/>
     <use xlink:href="#DejaVuSans-20" x="853.173828"/>
     <use xlink:href="#DejaVuSans-32" x="884.960938"/>
     <use xlink:href="#DejaVuSans-30" x="948.583984"/>
     <use xlink:href="#DejaVuSans-32" x="1012.207031"/>
     <use xlink:href="#DejaVuSans-35" x="1075.830078"/>
    </g>
   </g>
   <g id="text_18">
    <!-- Only AI got the marketing treatment -->
    <g style="fill: #1a1a1a" transform="translate(73.44 18.597656) scale(0.15 -0.15)">
     <defs>
      <path id="DejaVuSans-Bold-4f" d="M 2719 3878 
Q 2169 3878 1866 3472 
Q 1563 3066 1563 2328 
Q 1563 1594 1866 1187 
Q 2169 781 2719 781 
Q 3272 781 3575 1187 
Q 3878 1594 3878 2328 
Q 3878 3066 3575 3472 
Q 3272 3878 2719 3878 
z
M 2719 4750 
Q 3844 4750 4481 4106 
Q 5119 3463 5119 2328 
Q 5119 1197 4481 553 
Q 3844 -91 2719 -91 
Q 1597 -91 958 553 
Q 319 1197 319 2328 
Q 319 3463 958 4106 
Q 1597 4750 2719 4750 
z
" transform="scale(0.015625)"/>
      <path id="DejaVuSans-Bold-6e" d="M 4056 2131 
L 4056 0 
L 2931 0 
L 2931 347 
L 2931 1631 
Q 2931 2084 2911 2256 
Q 2891 2428 2841 2509 
Q 2775 2619 2662 2680 
Q 2550 2741 2406 2741 
Q 2056 2741 1856 2470 
Q 1656 2200 1656 1722 
L 1656 0 
L 538 0 
L 538 3500 
L 1656 3500 
L 1656 2988 
Q 1909 3294 2193 3439 
Q 2478 3584 2822 3584 
Q 3428 3584 3742 3212 
Q 4056 2841 4056 2131 
z
" transform="scale(0.015625)"/>
      <path id="DejaVuSans-Bold-6c" d="M 538 4863 
L 1656 4863 
L 1656 0 
L 538 0 
L 538 4863 
z
" transform="scale(0.015625)"/>
      <path id="DejaVuSans-Bold-79" d="M 78 3500 
L 1197 3500 
L 2138 1125 
L 2938 3500 
L 4056 3500 
L 2584 -331 
Q 2363 -916 2067 -1148 
Q 1772 -1381 1288 -1381 
L 641 -1381 
L 641 -647 
L 991 -647 
Q 1275 -647 1404 -556 
Q 1534 -466 1606 -231 
L 1638 -134 
L 78 3500 
z
" transform="scale(0.015625)"/>
      <path id="DejaVuSans-Bold-20" transform="scale(0.015625)"/>
      <path id="DejaVuSans-Bold-41" d="M 3419 850 
L 1538 850 
L 1241 0 
L 31 0 
L 1759 4666 
L 3194 4666 
L 4922 0 
L 3713 0 
L 3419 850 
z
M 1838 1716 
L 3116 1716 
L 2478 3572 
L 1838 1716 
z
" transform="scale(0.015625)"/>
      <path id="DejaVuSans-Bold-49" d="M 588 4666 
L 1791 4666 
L 1791 0 
L 588 0 
L 588 4666 
z
" transform="scale(0.015625)"/>
      <path id="DejaVuSans-Bold-67" d="M 2919 594 
Q 2688 288 2409 144 
Q 2131 0 1766 0 
Q 1125 0 706 504 
Q 288 1009 288 1791 
Q 288 2575 706 3076 
Q 1125 3578 1766 3578 
Q 2131 3578 2409 3434 
Q 2688 3291 2919 2981 
L 2919 3500 
L 4044 3500 
L 4044 353 
Q 4044 -491 3511 -936 
Q 2978 -1381 1966 -1381 
Q 1638 -1381 1331 -1331 
Q 1025 -1281 716 -1178 
L 716 -306 
Q 1009 -475 1290 -558 
Q 1572 -641 1856 -641 
Q 2406 -641 2662 -400 
Q 2919 -159 2919 353 
L 2919 594 
z
M 2181 2772 
Q 1834 2772 1640 2515 
Q 1447 2259 1447 1791 
Q 1447 1309 1634 1061 
Q 1822 813 2181 813 
Q 2531 813 2725 1069 
Q 2919 1325 2919 1791 
Q 2919 2259 2725 2515 
Q 2531 2772 2181 2772 
z
" transform="scale(0.015625)"/>
      <path id="DejaVuSans-Bold-6f" d="M 2203 2784 
Q 1831 2784 1636 2517 
Q 1441 2250 1441 1747 
Q 1441 1244 1636 976 
Q 1831 709 2203 709 
Q 2569 709 2762 976 
Q 2956 1244 2956 1747 
Q 2956 2250 2762 2517 
Q 2569 2784 2203 2784 
z
M 2203 3584 
Q 3106 3584 3614 3096 
Q 4122 2609 4122 1747 
Q 4122 884 3614 396 
Q 3106 -91 2203 -91 
Q 1297 -91 786 396 
Q 275 884 275 1747 
Q 275 2609 786 3096 
Q 1297 3584 2203 3584 
z
" transform="scale(0.015625)"/>
      <path id="DejaVuSans-Bold-74" d="M 1759 4494 
L 1759 3500 
L 2913 3500 
L 2913 2700 
L 1759 2700 
L 1759 1216 
Q 1759 972 1856 886 
Q 1953 800 2241 800 
L 2816 800 
L 2816 0 
L 1856 0 
Q 1194 0 917 276 
Q 641 553 641 1216 
L 641 2700 
L 84 2700 
L 84 3500 
L 641 3500 
L 641 4494 
L 1759 4494 
z
" transform="scale(0.015625)"/>
      <path id="DejaVuSans-Bold-68" d="M 4056 2131 
L 4056 0 
L 2931 0 
L 2931 347 
L 2931 1625 
Q 2931 2084 2911 2256 
Q 2891 2428 2841 2509 
Q 2775 2619 2662 2680 
Q 2550 2741 2406 2741 
Q 2056 2741 1856 2470 
Q 1656 2200 1656 1722 
L 1656 0 
L 538 0 
L 538 4863 
L 1656 4863 
L 1656 2988 
Q 1909 3294 2193 3439 
Q 2478 3584 2822 3584 
Q 3428 3584 3742 3212 
Q 4056 2841 4056 2131 
z
" transform="scale(0.015625)"/>
      <path id="DejaVuSans-Bold-65" d="M 4031 1759 
L 4031 1441 
L 1416 1441 
Q 1456 1047 1700 850 
Q 1944 653 2381 653 
Q 2734 653 3104 758 
Q 3475 863 3866 1075 
L 3866 213 
Q 3469 63 3072 -14 
Q 2675 -91 2278 -91 
Q 1328 -91 801 392 
Q 275 875 275 1747 
Q 275 2603 792 3093 
Q 1309 3584 2216 3584 
Q 3041 3584 3536 3087 
Q 4031 2591 4031 1759 
z
M 2881 2131 
Q 2881 2450 2695 2645 
Q 2509 2841 2209 2841 
Q 1884 2841 1681 2658 
Q 1478 2475 1428 2131 
L 2881 2131 
z
" transform="scale(0.015625)"/>
      <path id="DejaVuSans-Bold-6d" d="M 3781 2919 
Q 3994 3244 4286 3414 
Q 4578 3584 4928 3584 
Q 5531 3584 5847 3212 
Q 6163 2841 6163 2131 
L 6163 0 
L 5038 0 
L 5038 1825 
Q 5041 1866 5042 1909 
Q 5044 1953 5044 2034 
Q 5044 2406 4934 2573 
Q 4825 2741 4581 2741 
Q 4263 2741 4089 2478 
Q 3916 2216 3909 1719 
L 3909 0 
L 2784 0 
L 2784 1825 
Q 2784 2406 2684 2573 
Q 2584 2741 2328 2741 
Q 2006 2741 1831 2477 
Q 1656 2213 1656 1722 
L 1656 0 
L 531 0 
L 531 3500 
L 1656 3500 
L 1656 2988 
Q 1863 3284 2130 3434 
Q 2397 3584 2719 3584 
Q 3081 3584 3359 3409 
Q 3638 3234 3781 2919 
z
" transform="scale(0.015625)"/>
      <path id="DejaVuSans-Bold-61" d="M 2106 1575 
Q 1756 1575 1579 1456 
Q 1403 1338 1403 1106 
Q 1403 894 1545 773 
Q 1688 653 1941 653 
Q 2256 653 2472 879 
Q 2688 1106 2688 1447 
L 2688 1575 
L 2106 1575 
z
M 3816 1997 
L 3816 0 
L 2688 0 
L 2688 519 
Q 2463 200 2181 54 
Q 1900 -91 1497 -91 
Q 953 -91 614 226 
Q 275 544 275 1050 
Q 275 1666 698 1953 
Q 1122 2241 2028 2241 
L 2688 2241 
L 2688 2328 
Q 2688 2594 2478 2717 
Q 2269 2841 1825 2841 
Q 1466 2841 1156 2769 
Q 847 2697 581 2553 
L 581 3406 
Q 941 3494 1303 3539 
Q 1666 3584 2028 3584 
Q 2975 3584 3395 3211 
Q 3816 2838 3816 1997 
z
" transform="scale(0.015625)"/>
      <path id="DejaVuSans-Bold-72" d="M 3138 2547 
Q 2991 2616 2845 2648 
Q 2700 2681 2553 2681 
Q 2122 2681 1889 2404 
Q 1656 2128 1656 1613 
L 1656 0 
L 538 0 
L 538 3500 
L 1656 3500 
L 1656 2925 
Q 1872 3269 2151 3426 
Q 2431 3584 2822 3584 
Q 2878 3584 2943 3579 
Q 3009 3575 3134 3559 
L 3138 2547 
z
" transform="scale(0.015625)"/>
      <path id="DejaVuSans-Bold-6b" d="M 538 4863 
L 1656 4863 
L 1656 2216 
L 2944 3500 
L 4244 3500 
L 2534 1894 
L 4378 0 
L 3022 0 
L 1656 1459 
L 1656 0 
L 538 0 
L 538 4863 
z
" transform="scale(0.015625)"/>
      <path id="DejaVuSans-Bold-69" d="M 538 3500 
L 1656 3500 
L 1656 0 
L 538 0 
L 538 3500 
z
M 538 4863 
L 1656 4863 
L 1656 3950 
L 538 3950 
L 538 4863 
z
" transform="scale(0.015625)"/>
     </defs>
     <use xlink:href="#DejaVuSans-Bold-4f"/>
     <use xlink:href="#DejaVuSans-Bold-6e" x="85.009766"/>
     <use xlink:href="#DejaVuSans-Bold-6c" x="156.201172"/>
     <use xlink:href="#DejaVuSans-Bold-79" x="190.478516"/>
     <use xlink:href="#DejaVuSans-Bold-20" x="255.664062"/>
     <use xlink:href="#DejaVuSans-Bold-41" x="290.478516"/>
     <use xlink:href="#DejaVuSans-Bold-49" x="367.871094"/>
     <use xlink:href="#DejaVuSans-Bold-20" x="405.078125"/>
     <use xlink:href="#DejaVuSans-Bold-67" x="439.892578"/>
     <use xlink:href="#DejaVuSans-Bold-6f" x="511.474609"/>
     <use xlink:href="#DejaVuSans-Bold-74" x="580.175781"/>
     <use xlink:href="#DejaVuSans-Bold-20" x="627.978516"/>
     <use xlink:href="#DejaVuSans-Bold-74" x="662.792969"/>
     <use xlink:href="#DejaVuSans-Bold-68" x="710.595703"/>
     <use xlink:href="#DejaVuSans-Bold-65" x="781.787109"/>
     <use xlink:href="#DejaVuSans-Bold-20" x="849.609375"/>
     <use xlink:href="#DejaVuSans-Bold-6d" x="884.423828"/>
     <use xlink:href="#DejaVuSans-Bold-61" x="988.623047"/>
     <use xlink:href="#DejaVuSans-Bold-72" x="1056.103516"/>
     <use xlink:href="#DejaVuSans-Bold-6b" x="1105.419922"/>
     <use xlink:href="#DejaVuSans-Bold-65" x="1169.298828"/>
     <use xlink:href="#DejaVuSans-Bold-74" x="1237.121094"/>
     <use xlink:href="#DejaVuSans-Bold-69" x="1284.923828"/>
     <use xlink:href="#DejaVuSans-Bold-6e" x="1319.201172"/>
     <use xlink:href="#DejaVuSans-Bold-67" x="1390.392578"/>
     <use xlink:href="#DejaVuSans-Bold-20" x="1461.974609"/>
     <use xlink:href="#DejaVuSans-Bold-74" x="1496.789062"/>
     <use xlink:href="#DejaVuSans-Bold-72" x="1544.591797"/>
     <use xlink:href="#DejaVuSans-Bold-65" x="1593.908203"/>
     <use xlink:href="#DejaVuSans-Bold-61" x="1661.730469"/>
     <use xlink:href="#DejaVuSans-Bold-74" x="1729.210938"/>
     <use xlink:href="#DejaVuSans-Bold-6d" x="1777.013672"/>
     <use xlink:href="#DejaVuSans-Bold-65" x="1881.212891"/>
     <use xlink:href="#DejaVuSans-Bold-6e" x="1949.035156"/>
     <use xlink:href="#DejaVuSans-Bold-74" x="2020.226562"/>
    </g>
   </g>
   <g id="text_19">
    <!-- Share of 10-K filers using the "&lt;term&gt;-powered" / "&lt;term&gt;-driven" form, same template for every term -->
    <g style="fill: #8a8a8a" transform="translate(73.44 41.336775) scale(0.11 -0.11)">
     <defs>
      <path id="DejaVuSans-53" d="M 3425 4513 
L 3425 3897 
Q 3066 4069 2747 4153 
Q 2428 4238 2131 4238 
Q 1616 4238 1336 4038 
Q 1056 3838 1056 3469 
Q 1056 3159 1242 3001 
Q 1428 2844 1947 2747 
L 2328 2669 
Q 3034 2534 3370 2195 
Q 3706 1856 3706 1288 
Q 3706 609 3251 259 
Q 2797 -91 1919 -91 
Q 1588 -91 1214 -16 
Q 841 59 441 206 
L 441 856 
Q 825 641 1194 531 
Q 1563 422 1919 422 
Q 2459 422 2753 634 
Q 3047 847 3047 1241 
Q 3047 1584 2836 1778 
Q 2625 1972 2144 2069 
L 1759 2144 
Q 1053 2284 737 2584 
Q 422 2884 422 3419 
Q 422 4038 858 4394 
Q 1294 4750 2059 4750 
Q 2388 4750 2728 4690 
Q 3069 4631 3425 4513 
z
" transform="scale(0.015625)"/>
      <path id="DejaVuSans-67" d="M 2906 1791 
Q 2906 2416 2648 2759 
Q 2391 3103 1925 3103 
Q 1463 3103 1205 2759 
Q 947 2416 947 1791 
Q 947 1169 1205 825 
Q 1463 481 1925 481 
Q 2391 481 2648 825 
Q 2906 1169 2906 1791 
z
M 3481 434 
Q 3481 -459 3084 -895 
Q 2688 -1331 1869 -1331 
Q 1566 -1331 1297 -1286 
Q 1028 -1241 775 -1147 
L 775 -588 
Q 1028 -725 1275 -790 
Q 1522 -856 1778 -856 
Q 2344 -856 2625 -561 
Q 2906 -266 2906 331 
L 2906 616 
Q 2728 306 2450 153 
Q 2172 0 1784 0 
Q 1141 0 747 490 
Q 353 981 353 1791 
Q 353 2603 747 3093 
Q 1141 3584 1784 3584 
Q 2172 3584 2450 3431 
Q 2728 3278 2906 2969 
L 2906 3500 
L 3481 3500 
L 3481 434 
z
" transform="scale(0.015625)"/>
      <path id="DejaVuSans-22" d="M 1147 4666 
L 1147 2931 
L 616 2931 
L 616 4666 
L 1147 4666 
z
M 2328 4666 
L 2328 2931 
L 1797 2931 
L 1797 4666 
L 2328 4666 
z
" transform="scale(0.015625)"/>
      <path id="DejaVuSans-3c" d="M 4684 3150 
L 1459 2003 
L 4684 863 
L 4684 294 
L 678 1747 
L 678 2266 
L 4684 3719 
L 4684 3150 
z
" transform="scale(0.015625)"/>
      <path id="DejaVuSans-3e" d="M 678 3150 
L 678 3719 
L 4684 2266 
L 4684 1747 
L 678 294 
L 678 863 
L 3897 2003 
L 678 3150 
z
" transform="scale(0.015625)"/>
      <path id="DejaVuSans-70" d="M 1159 525 
L 1159 -1331 
L 581 -1331 
L 581 3500 
L 1159 3500 
L 1159 2969 
Q 1341 3281 1617 3432 
Q 1894 3584 2278 3584 
Q 2916 3584 3314 3078 
Q 3713 2572 3713 1747 
Q 3713 922 3314 415 
Q 2916 -91 2278 -91 
Q 1894 -91 1617 61 
Q 1341 213 1159 525 
z
M 3116 1747 
Q 3116 2381 2855 2742 
Q 2594 3103 2138 3103 
Q 1681 3103 1420 2742 
Q 1159 2381 1159 1747 
Q 1159 1113 1420 752 
Q 1681 391 2138 391 
Q 2594 391 2855 752 
Q 3116 1113 3116 1747 
z
" transform="scale(0.015625)"/>
      <path id="DejaVuSans-2f" d="M 1625 4666 
L 2156 4666 
L 531 -594 
L 0 -594 
L 1625 4666 
z
" transform="scale(0.015625)"/>
      <path id="DejaVuSans-76" d="M 191 3500 
L 800 3500 
L 1894 563 
L 2988 3500 
L 3597 3500 
L 2284 0 
L 1503 0 
L 191 3500 
z
" transform="scale(0.015625)"/>
      <path id="DejaVuSans-79" d="M 2059 -325 
Q 1816 -950 1584 -1140 
Q 1353 -1331 966 -1331 
L 506 -1331 
L 506 -850 
L 844 -850 
Q 1081 -850 1212 -737 
Q 1344 -625 1503 -206 
L 1606 56 
L 191 3500 
L 800 3500 
L 1894 763 
L 2988 3500 
L 3597 3500 
L 2059 -325 
z
" transform="scale(0.015625)"/>
     </defs>
     <use xlink:href="#DejaVuSans-53"/>
     <use xlink:href="#DejaVuSans-68" x="63.476562"/>
     <use xlink:href="#DejaVuSans-61" x="126.855469"/>
     <use xlink:href="#DejaVuSans-72" x="188.134766"/>
     <use xlink:href="#DejaVuSans-65" x="226.998047"/>
     <use xlink:href="#DejaVuSans-20" x="288.521484"/>
     <use xlink:href="#DejaVuSans-6f" x="320.308594"/>
     <use xlink:href="#DejaVuSans-66" x="381.490234"/>
     <use xlink:href="#DejaVuSans-20" x="416.695312"/>
     <use xlink:href="#DejaVuSans-31" x="448.482422"/>
     <use xlink:href="#DejaVuSans-30" x="512.105469"/>
     <use xlink:href="#DejaVuSans-2d" x="575.728516"/>
     <use xlink:href="#DejaVuSans-4b" x="611.8125"/>
     <use xlink:href="#DejaVuSans-20" x="677.388672"/>
     <use xlink:href="#DejaVuSans-66" x="709.175781"/>
     <use xlink:href="#DejaVuSans-69" x="744.380859"/>
     <use xlink:href="#DejaVuSans-6c" x="772.164062"/>
     <use xlink:href="#DejaVuSans-65" x="799.947266"/>
     <use xlink:href="#DejaVuSans-72" x="861.470703"/>
     <use xlink:href="#DejaVuSans-73" x="902.583984"/>
     <use xlink:href="#DejaVuSans-20" x="954.683594"/>
     <use xlink:href="#DejaVuSans-75" x="986.470703"/>
     <use xlink:href="#DejaVuSans-73" x="1049.849609"/>
     <use xlink:href="#DejaVuSans-69" x="1101.949219"/>
     <use xlink:href="#DejaVuSans-6e" x="1129.732422"/>
     <use xlink:href="#DejaVuSans-67" x="1193.111328"/>
     <use xlink:href="#DejaVuSans-20" x="1256.587891"/>
     <use xlink:href="#DejaVuSans-74" x="1288.375"/>
     <use xlink:href="#DejaVuSans-68" x="1327.583984"/>
     <use xlink:href="#DejaVuSans-65" x="1390.962891"/>
     <use xlink:href="#DejaVuSans-20" x="1452.486328"/>
     <use xlink:href="#DejaVuSans-22" x="1484.273438"/>
     <use xlink:href="#DejaVuSans-3c" x="1530.269531"/>
     <use xlink:href="#DejaVuSans-74" x="1614.058594"/>
     <use xlink:href="#DejaVuSans-65" x="1653.267578"/>
     <use xlink:href="#DejaVuSans-72" x="1714.791016"/>
     <use xlink:href="#DejaVuSans-6d" x="1754.154297"/>
     <use xlink:href="#DejaVuSans-3e" x="1851.566406"/>
     <use xlink:href="#DejaVuSans-2d" x="1935.355469"/>
     <use xlink:href="#DejaVuSans-70" x="1971.439453"/>
     <use xlink:href="#DejaVuSans-6f" x="2034.916016"/>
     <use xlink:href="#DejaVuSans-77" x="2096.097656"/>
     <use xlink:href="#DejaVuSans-65" x="2177.884766"/>
     <use xlink:href="#DejaVuSans-72" x="2239.408203"/>
     <use xlink:href="#DejaVuSans-65" x="2278.271484"/>
     <use xlink:href="#DejaVuSans-64" x="2339.794922"/>
     <use xlink:href="#DejaVuSans-22" x="2403.271484"/>
     <use xlink:href="#DejaVuSans-20" x="2449.267578"/>
     <use xlink:href="#DejaVuSans-2f" x="2481.054688"/>
     <use xlink:href="#DejaVuSans-20" x="2514.746094"/>
     <use xlink:href="#DejaVuSans-22" x="2546.533203"/>
     <use xlink:href="#DejaVuSans-3c" x="2592.529297"/>
     <use xlink:href="#DejaVuSans-74" x="2676.318359"/>
     <use xlink:href="#DejaVuSans-65" x="2715.527344"/>
     <use xlink:href="#DejaVuSans-72" x="2777.050781"/>
     <use xlink:href="#DejaVuSans-6d" x="2816.414062"/>
     <use xlink:href="#DejaVuSans-3e" x="2913.826172"/>
     <use xlink:href="#DejaVuSans-2d" x="2997.615234"/>
     <use xlink:href="#DejaVuSans-64" x="3033.699219"/>
     <use xlink:href="#DejaVuSans-72" x="3097.175781"/>
     <use xlink:href="#DejaVuSans-69" x="3138.289062"/>
     <use xlink:href="#DejaVuSans-76" x="3166.072266"/>
     <use xlink:href="#DejaVuSans-65" x="3225.251953"/>
     <use xlink:href="#DejaVuSans-6e" x="3286.775391"/>
     <use xlink:href="#DejaVuSans-22" x="3350.154297"/>
     <use xlink:href="#DejaVuSans-20" x="3396.150391"/>
     <use xlink:href="#DejaVuSans-66" x="3427.9375"/>
     <use xlink:href="#DejaVuSans-6f" x="3463.142578"/>
     <use xlink:href="#DejaVuSans-72" x="3524.324219"/>
     <use xlink:href="#DejaVuSans-6d" x="3563.6875"/>
     <use xlink:href="#DejaVuSans-2c" x="3661.099609"/>
     <use xlink:href="#DejaVuSans-20" x="3692.886719"/>
     <use xlink:href="#DejaVuSans-73" x="3724.673828"/>
     <use xlink:href="#DejaVuSans-61" x="3776.773438"/>
     <use xlink:href="#DejaVuSans-6d" x="3838.052734"/>
     <use xlink:href="#DejaVuSans-65" x="3935.464844"/>
     <use xlink:href="#DejaVuSans-20" x="3996.988281"/>
     <use xlink:href="#DejaVuSans-74" x="4028.775391"/>
     <use xlink:href="#DejaVuSans-65" x="4067.984375"/>
     <use xlink:href="#DejaVuSans-6d" x="4129.507812"/>
     <use xlink:href="#DejaVuSans-70" x="4226.919922"/>
     <use xlink:href="#DejaVuSans-6c" x="4290.396484"/>
     <use xlink:href="#DejaVuSans-61" x="4318.179688"/>
     <use xlink:href="#DejaVuSans-74" x="4379.458984"/>
     <use xlink:href="#DejaVuSans-65" x="4418.667969"/>
     <use xlink:href="#DejaVuSans-20" x="4480.191406"/>
     <use xlink:href="#DejaVuSans-66" x="4511.978516"/>
     <use xlink:href="#DejaVuSans-6f" x="4547.183594"/>
     <use xlink:href="#DejaVuSans-72" x="4608.365234"/>
     <use xlink:href="#DejaVuSans-20" x="4649.478516"/>
     <use xlink:href="#DejaVuSans-65" x="4681.265625"/>
     <use xlink:href="#DejaVuSans-76" x="4742.789062"/>
     <use xlink:href="#DejaVuSans-65" x="4801.96875"/>
     <use xlink:href="#DejaVuSans-72" x="4863.492188"/>
     <use xlink:href="#DejaVuSans-79" x="4904.605469"/>
     <use xlink:href="#DejaVuSans-20" x="4963.785156"/>
     <use xlink:href="#DejaVuSans-74" x="4995.572266"/>
     <use xlink:href="#DejaVuSans-65" x="5034.78125"/>
     <use xlink:href="#DejaVuSans-72" x="5096.304688"/>
     <use xlink:href="#DejaVuSans-6d" x="5135.667969"/>
    </g>
   </g>
   <g id="legend_1">
    <g id="line2d_27">
     <path d="M 81.54 59.125369 
L 90.54 59.125369 
L 99.54 59.125369 
" style="fill: none; stroke: #c1440e; stroke-width: 2.8; stroke-linecap: square"/>
    </g>
    <g id="text_20">
     <!-- "AI-powered" / "AI-driven" -->
     <g transform="translate(106.74 62.275369) scale(0.09 -0.09)">
      <defs>
       <path id="DejaVuSans-41" d="M 2188 4044 
L 1331 1722 
L 3047 1722 
L 2188 4044 
z
M 1831 4666 
L 2547 4666 
L 4325 0 
L 3669 0 
L 3244 1197 
L 1141 1197 
L 716 0 
L 50 0 
L 1831 4666 
z
" transform="scale(0.015625)"/>
       <path id="DejaVuSans-49" d="M 628 4666 
L 1259 4666 
L 1259 0 
L 628 0 
L 628 4666 
z
" transform="scale(0.015625)"/>
      </defs>
      <use xlink:href="#DejaVuSans-22"/>
      <use xlink:href="#DejaVuSans-41" x="45.996094"/>
      <use xlink:href="#DejaVuSans-49" x="114.404297"/>
      <use xlink:href="#DejaVuSans-2d" x="143.896484"/>
      <use xlink:href="#DejaVuSans-70" x="179.980469"/>
      <use xlink:href="#DejaVuSans-6f" x="243.457031"/>
      <use xlink:href="#DejaVuSans-77" x="304.638672"/>
      <use xlink:href="#DejaVuSans-65" x="386.425781"/>
      <use xlink:href="#DejaVuSans-72" x="447.949219"/>
      <use xlink:href="#DejaVuSans-65" x="486.8125"/>
      <use xlink:href="#DejaVuSans-64" x="548.335938"/>
      <use xlink:href="#DejaVuSans-22" x="611.8125"/>
      <use xlink:href="#DejaVuSans-20" x="657.808594"/>
      <use xlink:href="#DejaVuSans-2f" x="689.595703"/>
      <use xlink:href="#DejaVuSans-20" x="723.287109"/>
      <use xlink:href="#DejaVuSans-22" x="755.074219"/>
      <use xlink:href="#DejaVuSans-41" x="801.070312"/>
      <use xlink:href="#DejaVuSans-49" x="869.478516"/>
      <use xlink:href="#DejaVuSans-2d" x="898.970703"/>
      <use xlink:href="#DejaVuSans-64" x="935.054688"/>
      <use xlink:href="#DejaVuSans-72" x="998.53125"/>
      <use xlink:href="#DejaVuSans-69" x="1039.644531"/>
      <use xlink:href="#DejaVuSans-76" x="1067.427734"/>
      <use xlink:href="#DejaVuSans-65" x="1126.607422"/>
      <use xlink:href="#DejaVuSans-6e" x="1188.130859"/>
      <use xlink:href="#DejaVuSans-22" x="1251.509766"/>
     </g>
    </g>
    <g id="line2d_28">
     <path d="M 81.54 72.335681 
L 90.54 72.335681 
L 99.54 72.335681 
" style="fill: none; stroke: #6a8caf; stroke-width: 1.6; stroke-linecap: square"/>
    </g>
    <g id="text_21">
     <!-- "blockchain-…" -->
     <g transform="translate(106.74 75.485681) scale(0.09 -0.09)">
      <defs>
       <path id="DejaVuSans-2026" d="M 2869 794 
L 3531 794 
L 3531 0 
L 2869 0 
L 2869 794 
z
M 4997 794 
L 5663 794 
L 5663 0 
L 4997 0 
L 4997 794 
z
M 738 794 
L 1403 794 
L 1403 0 
L 738 0 
L 738 794 
z
" transform="scale(0.015625)"/>
      </defs>
      <use xlink:href="#DejaVuSans-22"/>
      <use xlink:href="#DejaVuSans-62" x="45.996094"/>
      <use xlink:href="#DejaVuSans-6c" x="109.472656"/>
      <use xlink:href="#DejaVuSans-6f" x="137.255859"/>
      <use xlink:href="#DejaVuSans-63" x="198.4375"/>
      <use xlink:href="#DejaVuSans-6b" x="253.417969"/>
      <use xlink:href="#DejaVuSans-63" x="311.328125"/>
      <use xlink:href="#DejaVuSans-68" x="366.308594"/>
      <use xlink:href="#DejaVuSans-61" x="429.6875"/>
      <use xlink:href="#DejaVuSans-69" x="490.966797"/>
      <use xlink:href="#DejaVuSans-6e" x="518.75"/>
      <use xlink:href="#DejaVuSans-2d" x="582.128906"/>
      <use xlink:href="#DejaVuSans-2026" x="618.212891"/>
      <use xlink:href="#DejaVuSans-22" x="718.212891"/>
     </g>
    </g>
    <g id="line2d_29">
     <path d="M 81.54 85.545994 
L 90.54 85.545994 
L 99.54 85.545994 
" style="fill: none; stroke: #8a8a8a; stroke-width: 1.6; stroke-linecap: square"/>
    </g>
    <g id="text_22">
     <!-- "cloud-…" -->
     <g transform="translate(106.74 88.695994) scale(0.09 -0.09)">
      <use xlink:href="#DejaVuSans-22"/>
      <use xlink:href="#DejaVuSans-63" x="45.996094"/>
      <use xlink:href="#DejaVuSans-6c" x="100.976562"/>
      <use xlink:href="#DejaVuSans-6f" x="128.759766"/>
      <use xlink:href="#DejaVuSans-75" x="189.941406"/>
      <use xlink:href="#DejaVuSans-64" x="253.320312"/>
      <use xlink:href="#DejaVuSans-2d" x="316.796875"/>
      <use xlink:href="#DejaVuSans-2026" x="352.880859"/>
      <use xlink:href="#DejaVuSans-22" x="452.880859"/>
     </g>
    </g>
    <g id="line2d_30">
     <path d="M 81.54 98.756306 
L 90.54 98.756306 
L 99.54 98.756306 
" style="fill: none; stroke: #b0a58f; stroke-width: 1.6; stroke-linecap: square"/>
    </g>
    <g id="text_23">
     <!-- "quantum-…" -->
     <g transform="translate(106.74 101.906306) scale(0.09 -0.09)">
      <use xlink:href="#DejaVuSans-22"/>
      <use xlink:href="#DejaVuSans-71" x="45.996094"/>
      <use xlink:href="#DejaVuSans-75" x="109.472656"/>
      <use xlink:href="#DejaVuSans-61" x="172.851562"/>
      <use xlink:href="#DejaVuSans-6e" x="234.130859"/>
      <use xlink:href="#DejaVuSans-74" x="297.509766"/>
      <use xlink:href="#DejaVuSans-75" x="336.71875"/>
      <use xlink:href="#DejaVuSans-6d" x="400.097656"/>
      <use xlink:href="#DejaVuSans-2d" x="497.509766"/>
      <use xlink:href="#DejaVuSans-2026" x="533.59375"/>
      <use xlink:href="#DejaVuSans-22" x="633.59375"/>
     </g>
    </g>
   </g>
  </g>
  <g id="text_24">
   <!-- Source: SEC EDGAR full-text search + full-index (public). Regenerated by pipeline/make_figures.py. -->
   <g style="fill: #8a8a8a" transform="translate(7.2 335.604197) scale(0.065 -0.065)">
    <defs>
     <path id="DejaVuSans-45" d="M 628 4666 
L 3578 4666 
L 3578 4134 
L 1259 4134 
L 1259 2753 
L 3481 2753 
L 3481 2222 
L 1259 2222 
L 1259 531 
L 3634 531 
L 3634 0 
L 628 0 
L 628 4666 
z
" transform="scale(0.015625)"/>
     <path id="DejaVuSans-43" d="M 4122 4306 
L 4122 3641 
Q 3803 3938 3442 4084 
Q 3081 4231 2675 4231 
Q 1875 4231 1450 3742 
Q 1025 3253 1025 2328 
Q 1025 1406 1450 917 
Q 1875 428 2675 428 
Q 3081 428 3442 575 
Q 3803 722 4122 1019 
L 4122 359 
Q 3791 134 3420 21 
Q 3050 -91 2638 -91 
Q 1578 -91 968 557 
Q 359 1206 359 2328 
Q 359 3453 968 4101 
Q 1578 4750 2638 4750 
Q 3056 4750 3426 4639 
Q 3797 4528 4122 4306 
z
" transform="scale(0.015625)"/>
     <path id="DejaVuSans-44" d="M 1259 4147 
L 1259 519 
L 2022 519 
Q 2988 519 3436 956 
Q 3884 1394 3884 2338 
Q 3884 3275 3436 3711 
Q 2988 4147 2022 4147 
L 1259 4147 
z
M 628 4666 
L 1925 4666 
Q 3281 4666 3915 4102 
Q 4550 3538 4550 2338 
Q 4550 1131 3912 565 
Q 3275 0 1925 0 
L 628 0 
L 628 4666 
z
" transform="scale(0.015625)"/>
     <path id="DejaVuSans-47" d="M 3809 666 
L 3809 1919 
L 2778 1919 
L 2778 2438 
L 4434 2438 
L 4434 434 
Q 4069 175 3628 42 
Q 3188 -91 2688 -91 
Q 1594 -91 976 548 
Q 359 1188 359 2328 
Q 359 3472 976 4111 
Q 1594 4750 2688 4750 
Q 3144 4750 3555 4637 
Q 3966 4525 4313 4306 
L 4313 3634 
Q 3963 3931 3569 4081 
Q 3175 4231 2741 4231 
Q 1884 4231 1454 3753 
Q 1025 3275 1025 2328 
Q 1025 1384 1454 906 
Q 1884 428 2741 428 
Q 3075 428 3337 486 
Q 3600 544 3809 666 
z
" transform="scale(0.015625)"/>
     <path id="DejaVuSans-52" d="M 2841 2188 
Q 3044 2119 3236 1894 
Q 3428 1669 3622 1275 
L 4263 0 
L 3584 0 
L 2988 1197 
Q 2756 1666 2539 1819 
Q 2322 1972 1947 1972 
L 1259 1972 
L 1259 0 
L 628 0 
L 628 4666 
L 2053 4666 
Q 2853 4666 3247 4331 
Q 3641 3997 3641 3322 
Q 3641 2881 3436 2590 
Q 3231 2300 2841 2188 
z
M 1259 4147 
L 1259 2491 
L 2053 2491 
Q 2509 2491 2742 2702 
Q 2975 2913 2975 3322 
Q 2975 3731 2742 3939 
Q 2509 4147 2053 4147 
L 1259 4147 
z
" transform="scale(0.015625)"/>
     <path id="DejaVuSans-78" d="M 3513 3500 
L 2247 1797 
L 3578 0 
L 2900 0 
L 1881 1375 
L 863 0 
L 184 0 
L 1544 1831 
L 300 3500 
L 978 3500 
L 1906 2253 
L 2834 3500 
L 3513 3500 
z
" transform="scale(0.015625)"/>
     <path id="DejaVuSans-2b" d="M 2944 4013 
L 2944 2272 
L 4684 2272 
L 4684 1741 
L 2944 1741 
L 2944 0 
L 2419 0 
L 2419 1741 
L 678 1741 
L 678 2272 
L 2419 2272 
L 2419 4013 
L 2944 4013 
z
" transform="scale(0.015625)"/>
     <path id="DejaVuSans-28" d="M 1984 4856 
Q 1566 4138 1362 3434 
Q 1159 2731 1159 2009 
Q 1159 1288 1364 580 
Q 1569 -128 1984 -844 
L 1484 -844 
Q 1016 -109 783 600 
Q 550 1309 550 2009 
Q 550 2706 781 3412 
Q 1013 4119 1484 4856 
L 1984 4856 
z
" transform="scale(0.015625)"/>
     <path id="DejaVuSans-29" d="M 513 4856 
L 1013 4856 
Q 1481 4119 1714 3412 
Q 1947 2706 1947 2009 
Q 1947 1309 1714 600 
Q 1481 -109 1013 -844 
L 513 -844 
Q 928 -128 1133 580 
Q 1338 1288 1338 2009 
Q 1338 2731 1133 3434 
Q 928 4138 513 4856 
z
" transform="scale(0.015625)"/>
     <path id="DejaVuSans-5f" d="M 3263 -1063 
L 3263 -1509 
L -63 -1509 
L -63 -1063 
L 3263 -1063 
z
" transform="scale(0.015625)"/>
    </defs>
    <use xlink:href="#DejaVuSans-53"/>
    <use xlink:href="#DejaVuSans-6f" x="63.476562"/>
    <use xlink:href="#DejaVuSans-75" x="124.658203"/>
    <use xlink:href="#DejaVuSans-72" x="188.037109"/>
    <use xlink:href="#DejaVuSans-63" x="226.900391"/>
    <use xlink:href="#DejaVuSans-65" x="281.880859"/>
    <use xlink:href="#DejaVuSans-3a" x="343.404297"/>
    <use xlink:href="#DejaVuSans-20" x="377.095703"/>
    <use xlink:href="#DejaVuSans-53" x="408.882812"/>
    <use xlink:href="#DejaVuSans-45" x="472.359375"/>
    <use xlink:href="#DejaVuSans-43" x="535.542969"/>
    <use xlink:href="#DejaVuSans-20" x="605.367188"/>
    <use xlink:href="#DejaVuSans-45" x="637.154297"/>
    <use xlink:href="#DejaVuSans-44" x="700.337891"/>
    <use xlink:href="#DejaVuSans-47" x="777.339844"/>
    <use xlink:href="#DejaVuSans-41" x="854.830078"/>
    <use xlink:href="#DejaVuSans-52" x="923.238281"/>
    <use xlink:href="#DejaVuSans-20" x="992.720703"/>
    <use xlink:href="#DejaVuSans-66" x="1024.507812"/>
    <use xlink:href="#DejaVuSans-75" x="1059.712891"/>
    <use xlink:href="#DejaVuSans-6c" x="1123.091797"/>
    <use xlink:href="#DejaVuSans-6c" x="1150.875"/>
    <use xlink:href="#DejaVuSans-2d" x="1178.658203"/>
    <use xlink:href="#DejaVuSans-74" x="1214.742188"/>
    <use xlink:href="#DejaVuSans-65" x="1253.951172"/>
    <use xlink:href="#DejaVuSans-78" x="1313.724609"/>
    <use xlink:href="#DejaVuSans-74" x="1372.904297"/>
    <use xlink:href="#DejaVuSans-20" x="1412.113281"/>
    <use xlink:href="#DejaVuSans-73" x="1443.900391"/>
    <use xlink:href="#DejaVuSans-65" x="1496"/>
    <use xlink:href="#DejaVuSans-61" x="1557.523438"/>
    <use xlink:href="#DejaVuSans-72" x="1618.802734"/>
    <use xlink:href="#DejaVuSans-63" x="1657.666016"/>
    <use xlink:href="#DejaVuSans-68" x="1712.646484"/>
    <use xlink:href="#DejaVuSans-20" x="1776.025391"/>
    <use xlink:href="#DejaVuSans-2b" x="1807.8125"/>
    <use xlink:href="#DejaVuSans-20" x="1891.601562"/>
    <use xlink:href="#DejaVuSans-66" x="1923.388672"/>
    <use xlink:href="#DejaVuSans-75" x="1958.59375"/>
    <use xlink:href="#DejaVuSans-6c" x="2021.972656"/>
    <use xlink:href="#DejaVuSans-6c" x="2049.755859"/>
    <use xlink:href="#DejaVuSans-2d" x="2077.539062"/>
    <use xlink:href="#DejaVuSans-69" x="2113.623047"/>
    <use xlink:href="#DejaVuSans-6e" x="2141.40625"/>
    <use xlink:href="#DejaVuSans-64" x="2204.785156"/>
    <use xlink:href="#DejaVuSans-65" x="2268.261719"/>
    <use xlink:href="#DejaVuSans-78" x="2328.035156"/>
    <use xlink:href="#DejaVuSans-20" x="2387.214844"/>
    <use xlink:href="#DejaVuSans-28" x="2419.001953"/>
    <use xlink:href="#DejaVuSans-70" x="2458.015625"/>
    <use xlink:href="#DejaVuSans-75" x="2521.492188"/>
    <use xlink:href="#DejaVuSans-62" x="2584.871094"/>
    <use xlink:href="#DejaVuSans-6c" x="2648.347656"/>
    <use xlink:href="#DejaVuSans-69" x="2676.130859"/>
    <use xlink:href="#DejaVuSans-63" x="2703.914062"/>
    <use xlink:href="#DejaVuSans-29" x="2758.894531"/>
    <use xlink:href="#DejaVuSans-2e" x="2797.908203"/>
    <use xlink:href="#DejaVuSans-20" x="2829.695312"/>
    <use xlink:href="#DejaVuSans-52" x="2861.482422"/>
    <use xlink:href="#DejaVuSans-65" x="2926.464844"/>
    <use xlink:href="#DejaVuSans-67" x="2987.988281"/>
    <use xlink:href="#DejaVuSans-65" x="3051.464844"/>
    <use xlink:href="#DejaVuSans-6e" x="3112.988281"/>
    <use xlink:href="#DejaVuSans-65" x="3176.367188"/>
    <use xlink:href="#DejaVuSans-72" x="3237.890625"/>
    <use xlink:href="#DejaVuSans-61" x="3279.003906"/>
    <use xlink:href="#DejaVuSans-74" x="3340.283203"/>
    <use xlink:href="#DejaVuSans-65" x="3379.492188"/>
    <use xlink:href="#DejaVuSans-64" x="3441.015625"/>
    <use xlink:href="#DejaVuSans-20" x="3504.492188"/>
    <use xlink:href="#DejaVuSans-62" x="3536.279297"/>
    <use xlink:href="#DejaVuSans-79" x="3599.755859"/>
    <use xlink:href="#DejaVuSans-20" x="3658.935547"/>
    <use xlink:href="#DejaVuSans-70" x="3690.722656"/>
    <use xlink:href="#DejaVuSans-69" x="3754.199219"/>
    <use xlink:href="#DejaVuSans-70" x="3781.982422"/>
    <use xlink:href="#DejaVuSans-65" x="3845.458984"/>
    <use xlink:href="#DejaVuSans-6c" x="3906.982422"/>
    <use xlink:href="#DejaVuSans-69" x="3934.765625"/>
    <use xlink:href="#DejaVuSans-6e" x="3962.548828"/>
    <use xlink:href="#DejaVuSans-65" x="4025.927734"/>
    <use xlink:href="#DejaVuSans-2f" x="4087.451172"/>
    <use xlink:href="#DejaVuSans-6d" x="4121.142578"/>
    <use xlink:href="#DejaVuSans-61" x="4218.554688"/>
    <use xlink:href="#DejaVuSans-6b" x="4279.833984"/>
    <use xlink:href="#DejaVuSans-65" x="4334.119141"/>
    <use xlink:href="#DejaVuSans-5f" x="4395.642578"/>
    <use xlink:href="#DejaVuSans-66" x="4445.642578"/>
    <use xlink:href="#DejaVuSans-69" x="4480.847656"/>
    <use xlink:href="#DejaVuSans-67" x="4508.630859"/>
    <use xlink:href="#DejaVuSans-75" x="4572.107422"/>
    <use xlink:href="#DejaVuSans-72" x="4635.486328"/>
    <use xlink:href="#DejaVuSans-65" x="4674.349609"/>
    <use xlink:href="#DejaVuSans-73" x="4735.873047"/>
    <use xlink:href="#DejaVuSans-2e" x="4787.972656"/>
    <use xlink:href="#DejaVuSans-70" x="4819.759766"/>
    <use xlink:href="#DejaVuSans-79" x="4883.236328"/>
    <use xlink:href="#DejaVuSans-2e" x="4928.166016"/>
   </g>
  </g>
 </g>
 <defs>
  <clipPath id="pfea75ddab7">
   <rect x="73.44" y="47.336775" width="446.4" height="255.024"/>
  </clipPath>
 </defs>
</svg>
